:SAMPLES-PER-SECOND 30
:FULLY-SPECIFIED
:DEGREES
131
root  -57.0951 39.2484 19.9984 -3.7511 -42.3547 -2.62776
RightUpLeg  -19.5863 -10.9245 2.2772
RightLeg  17.1786 -1.63857 3.04209
RightFoot  8.18388 1.12022 -6.17301
RightToes  2.91037e-010 0 -3.6325e-017
Spine  2.77671 -2.37702 11.6898
Spine1  8.39116 -1.65673 -0.842807
HEad  -12.5014 -0.691158 -2.88897
LeftShoulder1  8.64379 -11.7965 -49.3125
LeftArm  -8.8001 16.2925 -26.1253
LeftForeArm  27.1678 -28.1324 -4.59303
LeftHand  -0.244104 0.0205437 5.32207
RightShoulder  5.22958 8.2909 38.2819
RightArm  -2.38654 -19.3874 32.3034
RightForeArm  -0.899411 17.4738 5.82224
RightHand  -1.06501 2.5711 -15.6756
LeftUpLeg  -5.21517 7.38407 4.10954
LeftLeg  60.8849 3.83234 7.98237
LeftFoot  4.30458 0.129865 -1.07574
LeftToes  -2.38291e-010 7.29328e-011 -2.49822e-011
132
root  -57.8361 39.6665 20.5894 -3.54732 -42.1178 -2.28288
RightUpLeg  -17.186 -9.92658 1.09498
RightLeg  15.1623 -2.96101 4.01568
RightFoot  7.24424 0.913199 -5.2705
RightToes  2.91037e-010 0 -3.6325e-017
Spine  3.14686 -1.89347 12.2837
Spine1  7.95687 -0.998232 -1.66696
HEad  -13.5376 -1.64015 -2.16612
LeftShoulder1  8.87242 -12.0629 -49.7533
LeftArm  -6.56556 16.5269 -26.8463
LeftForeArm  27.2069 -24.3496 -3.79991
LeftHand  -0.244104 0.0205437 5.32207
RightShoulder  5.25052 8.37747 38.1415
RightArm  0.504507 -17.8707 33.1924
RightForeArm  -2.84673 18.9638 5.63906
RightHand  -1.16551 2.9422 -16.381
LeftUpLeg  -10.2654 8.96453 3.83554
LeftLeg  63.8843 3.70397 8.8315
LeftFoot  1.41046 0.00358316 -0.130298
LeftToes  -2.38291e-010 7.29328e-011 -2.49822e-011
133
root  -58.5616 40.0223 21.1264 -3.31462 -42.4267 -1.61052
RightUpLeg  -15.3053 -8.64089 0.153922
RightLeg  13.2902 -4.14136 4.67136
RightFoot  6.24439 0.749043 -4.56035
RightToes  2.91037e-010 0 -3.6325e-017
Spine  3.47177 -1.22052 12.2024
Spine1  7.06205 -0.247593 -2.16836
HEad  -13.8507 -2.11552 -1.52387
LeftShoulder1  8.91921 -12.1724 -49.6668
LeftArm  -6.35817 17.9288 -27.9409
LeftForeArm  27.4599 -21.7108 -3.50233
LeftHand  -0.244104 0.0205437 5.32207
RightShoulder  5.36815 8.63459 38.1725
RightArm  3.34697 -16.5058 33.7105
RightForeArm  -3.62209 19.6013 5.60141
RightHand  -1.11015 2.54918 -16.3576
LeftUpLeg  -14.5934 11.2634 3.3431
LeftLeg  63.6587 3.73034 8.80732
LeftFoot  -0.78354 0.0369443 -0.350147
LeftToes  -2.38291e-010 7.29328e-011 -2.49822e-011
134
root  -59.2437 40.3197 21.6158 -3.37802 -42.8924 -0.691147
RightUpLeg  -13.6657 -7.85097 -0.647714
RightLeg  11.6912 -4.44309 5.06417
RightFoot  5.65927 0.587554 -3.67
RightToes  2.91037e-010 0 -3.6325e-017
Spine  3.98113 -0.65268 11.8242
Spine1  6.11445 0.416543 -2.69861
HEad  -14.2676 -2.25436 -1.05421
LeftShoulder1  8.89032 -12.2136 -49.3771
LeftArm  -7.24943 19.7164 -28.7954
LeftForeArm  26.0054 -19.7077 -3.74119
LeftHand  -0.244104 0.0205437 5.32207
RightShoulder  5.51966 8.82833 38.6854
RightArm  5.74946 -15.1471 33.8721
RightForeArm  -4.27712 19.9417 5.61009
RightHand  -1.08575 2.34876 -16.4032
LeftUpLeg  -17.7603 13.706 2.58707
LeftLeg  60.5145 4.27405 8.69956
LeftFoot  -1.65388 0.0797842 -0.820837
LeftToes  -2.38291e-010 7.29328e-011 -2.49822e-011
135
root  -59.8606 40.5921 22.0828 -3.80093 -43.4841 0.325439
RightUpLeg  -11.9293 -7.81407 -1.30747
RightLeg  10.1568 -3.53472 5.30001
RightFoot  5.36004 0.471651 -2.9605
RightToes  2.91037e-010 0 -3.6325e-017
Spine  4.44482 -0.227606 11.6957
Spine1  5.7001 1.06367 -3.80043
HEad  -14.8164 -2.33966 -0.904234
LeftShoulder1  8.90794 -12.2676 -49.306
LeftArm  -7.71891 21.0768 -29.0737
LeftForeArm  23.2939 -17.9466 -4.13434
LeftHand  -0.244104 0.0205437 5.32207
RightShoulder  5.66109 8.92673 39.4337
RightArm  7.19004 -13.8462 34.0352
RightForeArm  -4.89211 20.1736 5.6153
RightHand  -1.14642 2.62236 -16.7306
LeftUpLeg  -19.2155 16.237 1.7334
LeftLeg  54.4944 4.83911 7.76595
LeftFoot  -2.9149 0.120064 -1.40252
LeftToes  -2.38291e-010 7.29328e-011 -2.49822e-011
136
root  -60.4263 40.7995 22.543 -4.25731 -44.1793 1.09695
RightUpLeg  -10.343 -7.84305 -1.6299
RightLeg  9.17767 -2.55228 5.27772
RightFoot  4.73873 0.478785 -3.1618
RightToes  2.91037e-010 0 -3.6325e-017
Spine  4.52455 0.101058 11.7466
Spine1  6.0921 1.6117 -4.82746
HEad  -15.1539 -2.44045 -0.992257
LeftShoulder1  8.97112 -12.3136 -49.5112
LeftArm  -8.26611 21.9932 -29.0667
LeftForeArm  22.7181 -16.4188 -4.4234
LeftHand  -0.244104 0.0205437 5.32207
RightShoulder  5.78829 9.05695 39.947
RightArm  7.82295 -12.7867 34.4201
RightForeArm  -5.038 20.2546 5.61715
RightHand  -1.17852 2.78952 -16.8496
LeftUpLeg  -18.9938 18.2548 1.171
LeftLeg  46.2723 4.39167 5.3477
LeftFoot  -4.49437 0.180916 -2.58021
LeftToes  -2.38291e-010 7.29328e-011 -2.49822e-011
137
root  -60.9693 40.9324 23.007 -4.55034 -44.6913 1.53922
RightUpLeg  -9.09138 -7.74959 -1.6748
RightLeg  8.94916 -2.16978 5.06948
RightFoot  3.86133 0.575687 -4.11223
RightToes  2.91037e-010 0 -3.6325e-017
Spine  4.11654 0.311597 11.6933
Spine1  6.90966 1.92067 -5.32247
HEad  -16.0264 -2.39815 -1.20563
LeftShoulder1  9.02772 -12.3699 -49.6471
LeftArm  -9.1479 22.803 -29.1856
LeftForeArm  24.6814 -15.1213 -4.50789
LeftHand  -0.244104 0.0205437 5.32207
RightShoulder  5.94565 9.28088 40.3478
RightArm  8.08627 -12.2688 34.8002
RightForeArm  -4.93877 20.1865 5.64145
RightHand  -1.15886 2.67885 -16.794
LeftUpLeg  -17.5083 18.493 0.995765
LeftLeg  37.0909 3.12409 2.89083
LeftFoot  -5.57166 0.242767 -4.15017
LeftToes  -2.38291e-010 7.29328e-011 -2.49822e-011
